<svg xmlns="http://www.w3.org/2000/svg" viewBox="0 0 24 24" fill="none"><path d="M12 15.5A3.5 3.5 0 1 0 12 8.5a3.5 3.5 0 0 0 0 7z" stroke="currentColor" stroke-width="1.4" stroke-linecap="round" stroke-linejoin="round"/><path d="M19.4 15a1.65 1.65 0 0 0 .33 1.82l.06.06a2 2 0 0 1-2.83 2.83l-.06-.06a1.65 1.65 0 0 0-1.82-.33 1.65 1.65 0 0 0-1 1.51V21a2 2 0 0 1-4 0v-.09a1.65 1.65 0 0 0-1-1.51 1.65 1.65 0 0 0-1.82.33l-.06.06A2 2 0 0 1 2.46 17.9l.06-.06a1.65 1.65 0 0 0 .33-1.82 1.65 1.65 0 0 0-1.51-1H3a2 2 0 0 1 0-4h.09a1.65 1.65 0 0 0 1.51-1 1.65 1.65 0 0 0-.33-1.82L4.72 2.46A2 2 0 1 1 7.55.63l.06.06A1.65 1.65 0 0 0 9.43.96c.45.1.86.34 1.2.68.34.34.58.75.68 1.2.3 1 1 1.95 1.98 2.28.5.17.99.46 1.41.88l.06.06A2 2 0 0 1 19.4 6.6l-.06.06c-.42.42-.71.91-.88 1.41-.33.98-1.28 1.68-2.28 1.98-.45.1-.86.34-1.2.68A3 3 0 0 0 12 15.5z" stroke="currentColor" stroke-width="0"/></svg>